<?xml version="1.0" encoding="UTF-8" standalone="no"?>
<!DOCTYPE svg PUBLIC "-//W3C//DTD SVG 1.1//EN"
 "http://www.w3.org/Graphics/SVG/1.1/DTD/svg11.dtd">
<!-- Generated by graphviz version 8.0.5 (20230430.1635)
 -->
<!-- Pages: 1 -->
<svg width="480pt" height="336pt"
 viewBox="0.00 0.00 479.93 335.91" xmlns="http://www.w3.org/2000/svg" xmlns:xlink="http://www.w3.org/1999/xlink">
<g id="graph0" class="graph" transform="scale(1 1) rotate(0) translate(4 331.91)">
<polygon fill="white" stroke="none" points="-4,4 -4,-331.91 475.93,-331.91 475.93,4 -4,4"/>
<!-- E0_0D -->
<g id="node1" class="node">
<title>E0_0D</title>
<polygon fill="lightgray" stroke="black" points="58.63,-215.62 17.13,-215.62 17.13,-196.37 58.63,-196.37 58.63,-215.62"/>
<text text-anchor="middle" x="37.88" y="-203.07" font-family="Times New Roman,serif" font-size="9.00">E0_0D</text>
</g>
<!-- Phase 7 -->
<g id="node16" class="node">
<title>Phase 7</title>
<ellipse fill="lightblue" stroke="black" cx="75.88" cy="-30.94" rx="30.94" ry="30.94"/>
<text text-anchor="middle" x="75.88" y="-28.01" font-family="Times New Roman,serif" font-size="9.00">Phase 7</text>
</g>
<!-- E0_0D&#45;&gt;Phase 7 -->
<g id="edge20" class="edge">
<title>E0_0D&#45;&gt;Phase 7</title>
<path fill="none" stroke="green" stroke-width="0.5" stroke-dasharray="1,5" d="M37.5,-195.94C36.94,-177.27 36.81,-133.28 45.88,-97.87 48.51,-87.62 52.65,-76.99 57.02,-67.33"/>
<polygon fill="green" stroke="green" stroke-width="0.5" points="60.13,-68.95 61.25,-58.42 53.8,-65.96 60.13,-68.95"/>
</g>
<!-- 11 -->
<g id="node19" class="node">
<title>11</title>
<ellipse fill="white" stroke="black" cx="131.88" cy="-121.91" rx="17.68" ry="17.68"/>
<text text-anchor="middle" x="131.88" y="-118.99" font-family="Times New Roman,serif" font-size="9.00">11</text>
</g>
<!-- E0_0D&#45;&gt;11 -->
<g id="edge1" class="edge">
<title>E0_0D&#45;&gt;11</title>
<path fill="none" stroke="red" stroke-width="0.39" d="M48.05,-196.23C61.37,-184.72 85.43,-163.89 105.88,-145.96 107.75,-144.32 109.68,-142.61 111.62,-140.91"/>
<polygon fill="red" stroke="red" stroke-width="0.39" points="113.78,-143.67 118.95,-134.43 109.14,-138.43 113.78,-143.67"/>
</g>
<!-- E0_1D -->
<g id="node2" class="node">
<title>E0_1D</title>
<polygon fill="lightgray" stroke="black" points="148.63,-306.6 107.13,-306.6 107.13,-287.35 148.63,-287.35 148.63,-306.6"/>
<text text-anchor="middle" x="127.88" y="-294.05" font-family="Times New Roman,serif" font-size="9.00">E0_1D</text>
</g>
<!-- &#45;E4_0D -->
<g id="node3" class="node">
<title>&#45;E4_0D</title>
<polygon fill="lightgray" stroke="black" points="121.13,-215.62 76.63,-215.62 76.63,-196.37 121.13,-196.37 121.13,-215.62"/>
<text text-anchor="middle" x="98.88" y="-203.07" font-family="Times New Roman,serif" font-size="9.00">&#45;E4_0D</text>
</g>
<!-- &#45;E4_0D&#45;&gt;11 -->
<g id="edge2" class="edge">
<title>&#45;E4_0D&#45;&gt;11</title>
<path fill="none" stroke="red" stroke-width="1.69" d="M102.54,-195.9C107,-184.81 114.72,-165.6 121.13,-149.66"/>
<polygon fill="red" stroke="red" stroke-width="1.69" points="125.01,-151.39 125.5,-140.8 118.52,-148.77 125.01,-151.39"/>
</g>
<!-- &#45;E5_0D -->
<g id="node4" class="node">
<title>&#45;E5_0D</title>
<polygon fill="lightgray" stroke="black" points="444.13,-215.62 399.63,-215.62 399.63,-196.37 444.13,-196.37 444.13,-215.62"/>
<text text-anchor="middle" x="421.88" y="-203.07" font-family="Times New Roman,serif" font-size="9.00">&#45;E5_0D</text>
</g>
<!-- Phase 9 -->
<g id="node17" class="node">
<title>Phase 9</title>
<ellipse fill="lightblue" stroke="black" cx="323.88" cy="-30.94" rx="30.94" ry="30.94"/>
<text text-anchor="middle" x="323.88" y="-28.01" font-family="Times New Roman,serif" font-size="9.00">Phase 9</text>
</g>
<!-- &#45;E5_0D&#45;&gt;Phase 9 -->
<g id="edge12" class="edge">
<title>&#45;E5_0D&#45;&gt;Phase 9</title>
<path fill="none" stroke="green" stroke-width="0.53" d="M419.06,-195.99C412.91,-177.04 397.23,-132.01 376.88,-97.87 369.44,-85.38 359.83,-72.7 350.84,-61.83"/>
<polygon fill="green" stroke="green" stroke-width="0.53" points="353.58,-59.64 344.45,-54.27 348.23,-64.16 353.58,-59.64"/>
</g>
<!-- 2734 -->
<g id="node20" class="node">
<title>2734</title>
<ellipse fill="white" stroke="black" cx="447.88" cy="-121.91" rx="24.04" ry="24.04"/>
<text text-anchor="middle" x="447.88" y="-118.99" font-family="Times New Roman,serif" font-size="9.00">2734</text>
</g>
<!-- &#45;E5_0D&#45;&gt;2734 -->
<g id="edge18" class="edge">
<title>&#45;E5_0D&#45;&gt;2734</title>
<path fill="none" stroke="red" stroke-width="0.15" d="M424.77,-195.9C427.91,-185.97 433.12,-169.51 437.8,-154.73"/>
<polygon fill="red" stroke="red" stroke-width="0.15" points="441.09,-155.94 440.78,-145.35 434.42,-153.83 441.09,-155.94"/>
</g>
<!-- E2_0D -->
<g id="node5" class="node">
<title>E2_0D</title>
<polygon fill="lightgray" stroke="black" points="96.63,-131.54 55.13,-131.54 55.13,-112.29 96.63,-112.29 96.63,-131.54"/>
<text text-anchor="middle" x="75.88" y="-118.99" font-family="Times New Roman,serif" font-size="9.00">E2_0D</text>
</g>
<!-- Phase 3 -->
<g id="node14" class="node">
<title>Phase 3</title>
<ellipse fill="lightblue" stroke="black" cx="181.88" cy="-30.94" rx="30.94" ry="30.94"/>
<text text-anchor="middle" x="181.88" y="-28.01" font-family="Times New Roman,serif" font-size="9.00">Phase 3</text>
</g>
<!-- E2_0D&#45;&gt;Phase 3 -->
<g id="edge7" class="edge">
<title>E2_0D&#45;&gt;Phase 3</title>
<path fill="none" stroke="red" stroke-width="1.37" d="M86.43,-112.06C100.94,-99.88 127.69,-77.43 149.19,-59.38"/>
<polygon fill="red" stroke="red" stroke-width="1.37" points="151.92,-61.82 157.33,-52.71 147.42,-56.46 151.92,-61.82"/>
</g>
<!-- E2_0D&#45;&gt;Phase 7 -->
<g id="edge14" class="edge">
<title>E2_0D&#45;&gt;Phase 7</title>
<path fill="none" stroke="red" stroke-width="0.19" stroke-dasharray="1,5" d="M75.88,-112.06C75.88,-102.61 75.88,-86.98 75.88,-72.01"/>
<polygon fill="red" stroke="red" stroke-width="0.19" points="79.38,-72.35 75.88,-62.35 72.38,-72.35 79.38,-72.35"/>
</g>
<!-- E2_1D -->
<g id="node6" class="node">
<title>E2_1D</title>
<polygon fill="lightgray" stroke="black" points="268.63,-215.62 227.13,-215.62 227.13,-196.37 268.63,-196.37 268.63,-215.62"/>
<text text-anchor="middle" x="247.88" y="-203.07" font-family="Times New Roman,serif" font-size="9.00">E2_1D</text>
</g>
<!-- E2_1D&#45;&gt;Phase 3 -->
<g id="edge11" class="edge">
<title>E2_1D&#45;&gt;Phase 3</title>
<path fill="none" stroke="green" stroke-width="1.14" d="M250.43,-195.93C255.28,-176.86 264.17,-131.62 249.88,-97.87 242.84,-81.23 229.31,-66.72 216.16,-55.58"/>
<polygon fill="green" stroke="green" stroke-width="1.14" points="218.64,-53.28 208.64,-49.76 214.26,-58.75 218.64,-53.28"/>
</g>
<!-- E2_1D&#45;&gt;11 -->
<g id="edge3" class="edge">
<title>E2_1D&#45;&gt;11</title>
<path fill="none" stroke="red" stroke-width="0.11" d="M232.78,-196.02C214.53,-184.96 183.12,-165.25 157.88,-145.96 155.91,-144.45 153.91,-142.83 151.92,-141.18"/>
<polygon fill="red" stroke="red" stroke-width="0.11" points="154.38,-138.68 144.53,-134.78 149.8,-143.97 154.38,-138.68"/>
</g>
<!-- T1 -->
<g id="node7" class="node">
<title>T1</title>
<polygon fill="lightgray" stroke="black" points="368.13,-131.54 341.63,-131.54 341.63,-112.29 368.13,-112.29 368.13,-131.54"/>
<text text-anchor="middle" x="354.88" y="-118.99" font-family="Times New Roman,serif" font-size="9.00">T1</text>
</g>
<!-- T1&#45;&gt;Phase 9 -->
<g id="edge13" class="edge">
<title>T1&#45;&gt;Phase 9</title>
<path fill="none" stroke="red" stroke-width="0.2" stroke-dasharray="1,5" d="M351.8,-112.06C348.32,-102.06 342.42,-85.14 336.94,-69.42"/>
<polygon fill="red" stroke="red" stroke-width="0.2" points="340.38,-68.66 333.79,-60.36 333.77,-70.96 340.38,-68.66"/>
</g>
<!-- &#45;T2 -->
<g id="node8" class="node">
<title>&#45;T2</title>
<polygon fill="lightgray" stroke="black" points="196.63,-131.54 167.13,-131.54 167.13,-112.29 196.63,-112.29 196.63,-131.54"/>
<text text-anchor="middle" x="181.88" y="-118.99" font-family="Times New Roman,serif" font-size="9.00">&#45;T2</text>
</g>
<!-- &#45;T2&#45;&gt;Phase 3 -->
<g id="edge9" class="edge">
<title>&#45;T2&#45;&gt;Phase 3</title>
<path fill="none" stroke="red" stroke-width="0.16" stroke-dasharray="1,5" d="M181.88,-112.06C181.88,-102.61 181.88,-86.98 181.88,-72.01"/>
<polygon fill="red" stroke="red" stroke-width="0.16" points="185.38,-72.35 181.88,-62.35 178.38,-72.35 185.38,-72.35"/>
</g>
<!-- T3 -->
<g id="node9" class="node">
<title>T3</title>
<polygon fill="lightgray" stroke="black" points="89.13,-306.6 62.63,-306.6 62.63,-287.35 89.13,-287.35 89.13,-306.6"/>
<text text-anchor="middle" x="75.88" y="-294.05" font-family="Times New Roman,serif" font-size="9.00">T3</text>
</g>
<!-- T3&#45;&gt;Phase 7 -->
<g id="edge15" class="edge">
<title>T3&#45;&gt;Phase 7</title>
<path fill="none" stroke="red" stroke-width="0.6" stroke-dasharray="1,5" d="M62.29,-287.75C45.81,-276.9 18.91,-256.09 7.88,-230.04 -16.46,-172.52 22.48,-102.99 50.74,-63.47"/>
<polygon fill="red" stroke="red" stroke-width="0.6" points="53.49,-65.64 56.58,-55.51 47.85,-61.5 53.49,-65.64"/>
</g>
<!-- 3585 -->
<g id="node18" class="node">
<title>3585</title>
<ellipse fill="white" stroke="black" cx="162.88" cy="-206" rx="24.04" ry="24.04"/>
<text text-anchor="middle" x="162.88" y="-203.07" font-family="Times New Roman,serif" font-size="9.00">3585</text>
</g>
<!-- T3&#45;&gt;3585 -->
<g id="edge21" class="edge">
<title>T3&#45;&gt;3585</title>
<path fill="none" stroke="red" stroke-width="0.6" d="M81.8,-286.97C86,-280.83 91.92,-272.65 97.88,-266.04 109.97,-252.63 124.78,-238.99 137.22,-228.21"/>
<polygon fill="red" stroke="red" stroke-width="0.6" points="139.28,-231.05 144.6,-221.89 134.73,-225.73 139.28,-231.05"/>
</g>
<!-- T4 -->
<g id="node10" class="node">
<title>T4</title>
<polygon fill="lightgray" stroke="black" points="323.13,-131.54 296.63,-131.54 296.63,-112.29 323.13,-112.29 323.13,-131.54"/>
<text text-anchor="middle" x="309.88" y="-118.99" font-family="Times New Roman,serif" font-size="9.00">T4</text>
</g>
<!-- Phase 5 -->
<g id="node15" class="node">
<title>Phase 5</title>
<ellipse fill="lightblue" stroke="black" cx="432.88" cy="-30.94" rx="30.94" ry="30.94"/>
<text text-anchor="middle" x="432.88" y="-28.01" font-family="Times New Roman,serif" font-size="9.00">Phase 5</text>
</g>
<!-- T4&#45;&gt;Phase 5 -->
<g id="edge17" class="edge">
<title>T4&#45;&gt;Phase 5</title>
<path fill="none" stroke="red" stroke-width="0.36" d="M318.01,-111.95C322.25,-107.49 327.63,-102.16 332.88,-97.87 353.37,-81.15 378.18,-64.77 397.97,-52.52"/>
<polygon fill="red" stroke="red" stroke-width="0.36" points="399.69,-55.57 406.39,-47.36 396.03,-49.6 399.69,-55.57"/>
</g>
<!-- T4&#45;&gt;Phase 7 -->
<g id="edge16" class="edge">
<title>T4&#45;&gt;Phase 7</title>
<path fill="none" stroke="red" stroke-width="0.14" d="M296.6,-115.62C284.49,-110.83 266.06,-103.67 249.88,-97.87 202.25,-80.8 188.99,-80.35 141.88,-61.87 132.21,-58.08 121.91,-53.61 112.39,-49.31"/>
<polygon fill="red" stroke="red" stroke-width="0.14" points="114.1,-46.24 103.55,-45.26 111.18,-52.61 114.1,-46.24"/>
</g>
<!-- T4&#45;&gt;Phase 9 -->
<g id="edge8" class="edge">
<title>T4&#45;&gt;Phase 9</title>
<path fill="none" stroke="green" stroke-width="0.25" stroke-dasharray="1,5" d="M311.28,-112.06C312.77,-102.54 315.26,-86.74 317.63,-71.67"/>
<polygon fill="green" stroke="green" stroke-width="0.25" points="321.06,-72.37 319.16,-61.95 314.15,-71.29 321.06,-72.37"/>
</g>
<!-- T5 -->
<g id="node11" class="node">
<title>T5</title>
<polygon fill="lightgray" stroke="black" points="241.13,-131.54 214.63,-131.54 214.63,-112.29 241.13,-112.29 241.13,-131.54"/>
<text text-anchor="middle" x="227.88" y="-118.99" font-family="Times New Roman,serif" font-size="9.00">T5</text>
</g>
<!-- T5&#45;&gt;Phase 3 -->
<g id="edge10" class="edge">
<title>T5&#45;&gt;Phase 3</title>
<path fill="none" stroke="red" stroke-width="0.62" stroke-dasharray="1,5" d="M223.3,-112.06C217.94,-101.67 208.7,-83.81 200.31,-67.59"/>
<polygon fill="red" stroke="red" stroke-width="0.62" points="203.47,-66.07 195.77,-58.8 197.25,-69.29 203.47,-66.07"/>
</g>
<!-- T6 -->
<g id="node12" class="node">
<title>T6</title>
<polygon fill="lightgray" stroke="black" points="193.13,-306.6 166.63,-306.6 166.63,-287.35 193.13,-287.35 193.13,-306.6"/>
<text text-anchor="middle" x="179.88" y="-294.05" font-family="Times New Roman,serif" font-size="9.00">T6</text>
</g>
<!-- Phase 1 -->
<g id="node13" class="node">
<title>Phase 1</title>
<ellipse fill="lightblue" stroke="black" cx="241.88" cy="-296.97" rx="30.94" ry="30.94"/>
<text text-anchor="middle" x="241.88" y="-294.05" font-family="Times New Roman,serif" font-size="9.00">Phase 1</text>
</g>
<!-- 3585&#45;&gt;11 -->
<g id="edge22" class="edge">
<title>3585&#45;&gt;11</title>
<path fill="none" stroke="green" stroke-width="1.11" d="M154.58,-183C150.65,-172.6 145.93,-160.1 141.81,-149.21"/>
<polygon fill="green" stroke="green" stroke-width="1.11" points="144.76,-148.1 137.95,-139.98 138.21,-150.57 144.76,-148.1"/>
</g>
<!-- 11&#45;&gt;Phase 3 -->
<g id="edge4" class="edge">
<title>11&#45;&gt;Phase 3</title>
<path fill="none" stroke="red" stroke-width="0.34" stroke-dasharray="1,5" d="M140.14,-106.22C146.1,-95.61 154.41,-80.82 162.05,-67.23"/>
<polygon fill="red" stroke="red" stroke-width="0.34" points="165.1,-68.96 166.94,-58.52 158.99,-65.53 165.1,-68.96"/>
</g>
<!-- 11&#45;&gt;Phase 7 -->
<g id="edge5" class="edge">
<title>11&#45;&gt;Phase 7</title>
<path fill="none" stroke="green" stroke-width="0.18" d="M122.89,-106.62C115.96,-95.61 106.1,-79.94 97.19,-65.79"/>
<polygon fill="green" stroke="green" stroke-width="0.18" points="100.38,-64.28 92.09,-57.68 94.45,-68.01 100.38,-64.28"/>
</g>
<!-- 11&#45;&gt;Phase 9 -->
<g id="edge6" class="edge">
<title>11&#45;&gt;Phase 9</title>
<path fill="none" stroke="red" stroke-width="0.21" d="M143.88,-108.72C148.06,-104.91 152.95,-100.91 157.88,-97.87 198.32,-72.99 249.76,-54.29 284.59,-43.27"/>
<polygon fill="red" stroke="red" stroke-width="0.21" points="285.43,-46.67 293.94,-40.37 283.36,-39.99 285.43,-46.67"/>
</g>
<!-- 2734&#45;&gt;Phase 5 -->
<g id="edge19" class="edge">
<title>2734&#45;&gt;Phase 5</title>
<path fill="none" stroke="red" stroke-width="0.13" d="M444.02,-98C442.66,-89.91 441.08,-80.56 439.55,-71.49"/>
<polygon fill="red" stroke="red" stroke-width="0.13" points="443.04,-71.1 437.92,-61.83 436.13,-72.27 443.04,-71.1"/>
</g>
</g>
</svg>
